<svg width="275" height="400" viewBox="0 0 275 400" fill="none" xmlns="http://www.w3.org/2000/svg">
<path fill-rule="evenodd" clip-rule="evenodd" d="M181.181 0.968753C179.943 1.46675 178.931 2.71775 178.931 3.75075C178.931 5.99675 175.469 9.38775 174.063 8.51975C173.516 8.18175 172.744 8.43175 172.346 9.07575C171.894 9.80675 172.055 9.97875 172.776 9.53275C174.67 8.36275 174.095 10.4168 171.431 14.3428C170.056 16.3688 168.931 18.5758 168.931 19.2468C168.931 19.9178 168.031 22.1468 166.931 24.1988C165.831 26.2518 164.96 28.7198 164.994 29.6838C165.039 30.9208 165.356 30.7008 166.071 28.9378C167.075 26.4618 167.098 26.4758 168.449 30.3588C169.199 32.5148 169.572 35.4828 169.278 36.9528C168.761 39.5358 172.869 51.7598 175.272 54.7888C175.861 55.5318 176.431 56.7368 176.538 57.4658C176.8 59.2528 162.584 72.9378 160.466 72.9378C158.255 72.9378 149.931 77.8418 149.931 79.1438C149.931 79.7028 148.384 84.0468 146.493 88.7988C144.602 93.5498 142.107 101.263 140.948 105.938C137.981 117.916 137.626 119.08 133.034 131.938C128.853 143.643 124.401 163.804 125.266 167.112C125.529 168.115 125.335 169.188 124.837 169.496C124.339 169.804 123.928 170.817 123.925 171.747C123.921 172.677 123.246 174.727 122.425 176.302C121.603 177.878 120.931 180.86 120.931 182.93C120.931 185.055 120.278 187.235 119.431 187.938C118.606 188.623 117.931 190.05 117.931 191.11C117.931 193.304 115.427 198.597 113.172 201.169C111.986 202.523 111.914 203.212 112.841 204.33C113.792 205.476 113.402 206.47 110.873 209.351C109.138 211.327 107.966 213.586 108.267 214.372C109.144 216.658 105.294 223.493 101.252 226.825C97.9359 229.559 97.3589 229.73 95.9039 228.414C93.1859 225.954 89.1789 226.564 87.5329 229.688C86.7369 231.201 84.4749 233.937 82.5079 235.769C80.5409 237.601 78.9309 239.696 78.9309 240.423C78.9309 241.15 77.5139 243.345 75.7829 245.301L72.6349 248.856L70.7829 245.401C68.7729 241.651 68.3909 238.39 69.8549 237.485C70.3639 237.171 70.9859 237.707 71.2389 238.676C71.4919 239.645 71.7509 238.525 71.8149 236.188C71.8949 233.249 71.3519 231.359 70.0549 230.062C68.4219 228.429 67.3989 224.983 66.6939 218.742C66.5149 217.161 60.0709 213.938 57.0889 213.938C56.3869 213.938 56.0559 213.544 56.3539 213.063C57.1989 211.695 47.6909 213.071 45.2299 214.672C44.0199 215.459 42.0249 218.204 40.7969 220.771C39.5689 223.338 37.4099 227.207 35.9979 229.368C33.9999 232.427 33.4099 234.644 33.3359 239.368C33.2829 242.707 32.9069 246.563 32.4989 247.938C31.9899 249.655 32.0599 250.011 32.7229 249.075C33.5389 247.924 33.7729 247.924 34.2309 249.075C34.5429 249.86 34.8069 249.484 34.8519 248.188C34.8949 246.95 35.3549 245.938 35.8739 245.938C36.3929 245.938 36.7679 248.134 36.7059 250.817C36.6029 255.379 36.3779 255.782 33.2629 257.004C31.3519 257.754 29.9309 259.019 29.9309 259.97C29.9309 260.882 29.0309 262.443 27.9309 263.438C26.8309 264.433 25.9159 265.741 25.8969 266.343C25.8419 268.111 22.7419 273.944 17.9749 281.249C15.5309 284.995 13.4449 288.642 13.3399 289.354C13.1529 290.628 9.00586 296.583 3.75886 303.113C0.788858 306.808 -1.26314 312.794 0.896858 311.459C1.62386 311.01 2.52286 311.263 3.02686 312.06C3.67486 313.083 3.90386 312.858 3.91586 311.188C3.93186 308.837 5.34286 308.178 6.46686 309.996C7.15586 311.112 10.9309 304.89 10.9309 302.638C10.9309 301.245 16.9839 294.938 18.3209 294.938C18.7579 294.938 20.2599 295.838 21.6579 296.938C25.0789 299.629 25.9309 299.461 25.9309 296.093C25.9309 292.965 29.4019 288.851 30.1489 291.093C30.3829 291.795 31.4279 289.996 32.4719 287.095C34.3969 281.742 36.4249 279.099 37.6599 280.333C38.0339 280.707 38.4729 283.359 38.6359 286.226C38.7979 289.092 39.2039 293.858 39.5359 296.815C40.1599 302.36 38.7139 312.167 36.4949 317.438C33.0249 325.679 26.8229 346.214 27.3719 347.644C27.8079 348.781 28.3129 348.956 29.0459 348.223C30.0729 347.196 31.2439 347.422 39.0449 350.153C41.3649 350.965 41.7309 351.753 42.2949 357.15C42.6449 360.495 42.9309 368.588 42.9309 375.134C42.9309 389.018 41.9149 391.885 35.9099 394.949C33.7219 396.065 31.9309 397.645 31.9309 398.458C31.9309 399.661 33.7149 399.938 41.4619 399.938C52.6049 399.938 52.6409 399.904 51.0749 390.696C50.3449 386.4 50.3259 382.244 51.0149 377.438C51.5669 373.588 52.2849 366.275 52.6109 361.188L53.2039 351.938L56.3169 351.927C58.0299 351.921 61.0129 351.654 62.9459 351.334L66.4599 350.753L67.9419 359.095C68.7569 363.684 69.4259 370.813 69.4279 374.938C69.4309 381.934 69.6969 382.865 73.3869 388.791C77.5769 395.522 80.7439 397.644 83.9959 395.903C86.8169 394.393 86.3879 391.826 82.3269 385.923C76.8769 378.001 76.3809 375.861 76.7289 361.81L77.0419 349.182L80.7359 348.58C82.8339 348.238 84.5759 348.405 84.7659 348.964C84.9509 349.507 85.5129 349.696 86.0159 349.385C87.4179 348.519 87.1039 344.549 85.4629 342.379C84.6549 341.312 83.9799 338.771 83.9629 336.733C83.9449 334.696 82.7669 329.971 81.3439 326.233C77.7129 316.698 76.8159 312.004 76.2459 299.568C75.8589 291.119 76.1449 287.166 77.5319 281.818C78.5139 278.034 79.6799 274.938 80.1239 274.938C80.5679 274.938 80.9309 273.367 80.9309 271.447C80.9309 268.064 81.9809 266.283 90.5159 255.188C91.8909 253.4 93.8969 251.938 94.9739 251.938C96.4329 251.938 96.9309 251.252 96.9309 249.243C96.9309 247.76 98.0129 245.398 99.3369 243.993C100.66 242.588 102.707 239.697 103.886 237.569C107.65 230.779 113.158 224.875 115.143 225.505C116.3 225.873 116.931 225.56 116.931 224.62C116.931 223.822 117.968 222.488 119.236 221.657C120.505 220.827 122.167 218.252 122.932 215.936C124.408 211.463 126.34 209.947 128.198 211.805C130.496 214.103 131.709 212.871 132.371 207.57C132.74 204.617 133.917 200.569 134.987 198.573C136.056 196.578 136.931 194.056 136.931 192.968C136.931 191.881 137.809 189.067 138.882 186.715C143.282 177.068 154.908 143.468 154.961 140.245C154.977 139.251 156.066 135.288 157.381 131.438C159.365 125.629 159.786 124.987 159.852 127.664C159.895 129.438 160.829 132.363 161.927 134.164C163.025 135.965 163.925 138.163 163.927 139.048C163.929 139.934 165.133 142.409 166.601 144.548C170.083 149.621 169.984 153.922 166.279 158.547C159.567 166.925 156.849 173.433 154.857 185.899C154.29 189.453 153.463 192.828 153.021 193.399C152.031 194.676 149.242 214.58 147.97 229.438C147.452 235.488 146.754 241.356 146.418 242.477C146.02 243.809 146.479 245.124 147.742 246.267C149.466 247.828 149.62 249.012 149.165 257.227C148.656 266.427 148.657 266.436 150.686 264.63C152.53 262.989 153.035 262.955 156.163 264.262L159.61 265.702L160.27 279.478C160.634 287.055 160.933 299.371 160.935 306.846C160.937 314.322 161.584 324.488 162.371 329.438C164.337 341.792 165.916 359.362 166.197 372C166.423 382.219 166.339 382.684 163.601 386.288C162.045 388.337 159.007 391.127 156.851 392.488C154.695 393.849 152.931 395.407 152.931 395.951C152.931 396.529 156.732 396.938 162.102 396.938C169.19 396.938 171.684 396.566 173.081 395.302C174.755 393.787 174.936 393.787 175.517 395.302C175.862 396.202 176.925 396.938 177.878 396.938C179.225 396.938 179.894 395.431 180.888 390.167C182.018 384.179 181.964 382.819 180.428 378.417C177.799 370.882 177.265 347.798 179.342 331.438C180.39 323.178 180.89 313.151 180.712 303.938C180.432 289.485 180.442 289.411 183.789 281.271C187.98 271.08 191.234 267.649 195.834 268.569C197.632 268.928 199.25 269.721 199.43 270.33C199.61 270.939 200.921 275.178 202.344 279.75C204.422 286.425 204.931 290.091 204.931 298.369C204.931 304.038 205.687 312.672 206.611 317.557C208.999 330.186 209.038 352.257 206.681 356.842C204.443 361.194 204.48 363.251 206.904 369.419C207.989 372.179 209.35 376.924 209.928 379.963C211.266 386.996 214.116 391.695 217.569 392.562C223.741 394.111 226.059 383.412 221.86 372.759C217.715 362.242 217.724 360.56 222.073 330.438C225.76 304.906 226.057 301.336 225.443 289.938C225.073 283.063 224.827 274.288 224.895 270.438C225.035 262.624 225.506 261.968 233.931 257.844C240.799 254.482 240.803 254.476 239.706 249.333C238.845 245.296 238.959 244.607 240.686 243.397C242.248 242.303 242.554 241.167 242.212 237.733C241.977 235.371 241.172 232.088 240.423 230.438C239.178 227.692 237.304 218.288 236.382 210.157C236.178 208.352 235.74 206.438 235.41 205.904C235.08 205.37 234.419 202.796 233.942 200.185C233.464 197.574 232.617 193.863 232.059 191.938C229.458 182.97 229.134 180.938 230.307 180.938C232.106 180.938 246.193 189.443 248.336 191.822C249.384 192.986 250.776 193.938 251.431 193.938C252.086 193.938 253.344 194.737 254.228 195.714C255.698 197.338 255.701 198.087 254.269 204.464C253.408 208.3 252.025 212.209 251.196 213.151C250.367 214.093 249.954 215.555 250.278 216.401C251.761 220.264 259.722 216.503 267.134 208.438C276.439 198.313 276.913 195.952 270.576 191.295C267.301 188.888 265.893 188.38 264.563 189.124C263.356 189.799 262.312 189.69 261.142 188.767C260.215 188.036 258.839 186.988 258.083 186.438C256.128 185.016 251.993 180.698 248.007 175.917C246.124 173.658 243.199 171.106 241.507 170.246C237.471 168.196 237.606 168.414 238.885 166.024C239.499 164.877 240.796 163.938 241.766 163.938C244.097 163.938 245.931 162.013 245.931 159.567C245.931 158.483 246.612 156.843 247.444 155.924C250.191 152.888 253.769 142.4 252.705 140.499C252.175 139.551 251.989 137.823 252.294 136.659C252.598 135.494 252.456 134.069 251.977 133.49C251.498 132.911 249.914 128.163 248.457 122.938C247 117.713 245.314 112.434 244.71 111.206C243.519 108.784 244.868 78.8997 246.31 75.7777C246.862 74.5817 246.497 73.9348 245.003 73.4608C243.637 73.0268 242.931 71.9538 242.931 70.3118C242.931 68.9048 243.367 68.0888 243.931 68.4378C244.481 68.7778 244.931 68.5937 244.931 68.0277C244.931 67.4627 245.68 67.2877 246.595 67.6387C247.587 68.0197 248.009 67.8728 247.638 67.2738C247.297 66.7208 247.943 64.4008 249.073 62.1158C252.982 54.2158 251.784 46.1098 245.894 40.6058C243.225 38.1108 241.974 37.6838 237.469 37.7238C231.079 37.7808 225.48 40.4098 221.086 45.4138C217.581 49.4058 217.115 52.7628 219.549 56.4778C220.928 58.5818 220.965 59.1928 219.799 60.6058C218.732 61.8988 218.706 62.3558 219.681 62.6838C220.369 62.9148 220.931 63.7578 220.931 64.5568C220.931 67.0288 224.064 70.9378 226.046 70.9378C227.083 70.9378 227.931 71.3397 227.931 71.8307C227.931 73.5507 224.867 73.8757 221.663 72.4967C219.886 71.7307 216.781 70.3887 214.764 69.5137C212.72 68.6267 208.185 64.6688 204.514 60.5678C199.254 54.6898 197.931 52.5568 197.931 49.9528C197.931 47.1688 198.15 46.8748 199.431 47.9378C200.699 48.9908 200.931 48.7778 200.931 46.5598C200.931 43.4798 201.561 43.3148 204.274 45.6878C205.683 46.9208 206.011 46.9938 205.383 45.9378C204.492 44.4398 203.644 39.3158 202.569 28.9378C202.166 25.0538 202.248 24.3198 202.847 26.4378C203.662 29.3228 203.699 29.3398 203.813 26.8788C203.878 25.4718 203.27 23.4468 202.463 22.3788C201.655 21.3118 200.98 19.1998 200.963 17.6878C200.945 16.1758 200.481 14.9378 199.931 14.9378C199.381 14.9378 198.931 13.5298 198.931 11.8078C198.931 7.04475 191.694 -0.0842469 186.946 0.000753114C185.013 0.0357531 182.419 0.471753 181.181 0.968753ZM166.126 34.4378C166.146 36.0878 166.37 36.6418 166.624 35.6688C166.878 34.6958 166.861 33.3458 166.587 32.6688C166.313 31.9918 166.106 32.7878 166.126 34.4378Z" fill="black"/>
</svg>
